<svg xmlns="http://www.w3.org/2000/svg" id="图层_1" x="0" y="0" version="1.1" viewBox="0 0 256 256" xml:space="preserve"><style>.st0,.st1{fill-rule:evenodd;clip-rule:evenodd;fill:url(#SVGID_1_)}.st1{fill:url(#SVGID_2_)}.st2{fill:#fff}</style><linearGradient id="SVGID_1_" x1="11.138" x2="245.53" y1="10.65" y2="245.042" gradientUnits="userSpaceOnUse"><stop offset="0" stop-color="#5e72e4"/><stop offset="1" stop-color="#778aff"/></linearGradient><path d="M36.4.2h183.8c19.7 0 35.7 16 35.7 35.7v183.8c0 19.7-16 35.7-35.7 35.7H36.4c-19.7 0-35.7-16-35.7-35.7V35.9C.7 16.2 16.7.2 36.4.2z" class="st0"/><linearGradient id="SVGID_2_" x1=".668" x2=".668" y1=".18" y2=".18" gradientUnits="userSpaceOnUse"><stop offset="0" stop-color="#5e72e4"/><stop offset="1" stop-color="#778aff"/></linearGradient><path d="M128.3 32.6c-43.9 0-79.4 35.6-79.4 79.4 0 35.3 23.1 65.2 55 75.6l9.9-40.1C99.8 141.8 90 128.1 90 112c0-21.2 17.2-38.3 38.3-38.3 21.2 0 38.3 17.2 38.3 38.3 0 16-9.8 29.7-23.8 35.5l9.9 40.1c31.9-10.3 55-40.2 55-75.6.1-43.8-35.5-79.4-79.4-79.4z" class="st2"/><g><path d="M48.5 234.8c-2.3 0-4.3-.3-6.1-.9-1.7-.6-3.3-1.6-4.7-3-1.4-1.4-2.5-2.8-3.3-4.2-.8-1.4-1.3-2.9-1.6-4.4-.3-1.5-.4-3.2-.4-4.9 0-2.3.3-4.3.8-5.9.5-1.7 1.1-3.1 1.8-4.3.7-1.2 1.8-2.4 3.1-3.6 1.3-1.2 2.8-2.1 4.4-2.8 1.6-.7 3.5-1.1 5.7-1.1 2 0 3.8.3 5.6.9 1.7.6 3.3 1.5 4.7 2.7 1.4 1.2 2.6 2.6 3.5 4.4 1 1.7 1.6 3.4 1.9 5 .3 1.6.4 3.2.4 4.8-.1 2.5-.4 4.7-1 6.6-.6 1.9-1.3 3.5-2.2 4.7-.9 1.2-1.9 2.3-3.2 3.2-1.2.9-2.7 1.7-4.3 2.2-1.3.3-3.1.6-5.1.6zm-.5-7.2c1.1.1 2.3-.1 3.4-.4 1.1-.4 2.2-1.1 3.2-2.1s1.6-2.3 1.9-3.8c.3-1.5.5-2.9.4-4.3 0-1.9-.3-3.4-.7-4.6-.4-1.2-1-2.2-1.6-3-.6-.8-1.4-1.5-2.3-2-.9-.5-1.9-.8-3.1-.9-1.1-.1-2.2.1-3.2.4-1 .4-1.9.9-2.7 1.5-.8.6-1.5 1.5-2.2 2.5-.6 1-1 2.1-1.1 3.2-.1 1.1-.2 2.1-.2 3 0 1.2.1 2.4.4 3.6.2 1.2.7 2.3 1.3 3.4.6 1 1.5 1.8 2.7 2.4 1.2.7 2.4 1 3.8 1.1zM77 243.9h-7.2v-32.8H77v2c.3-.3.7-.6 1.1-.9.4-.3.9-.5 1.6-.7.7-.2 1.3-.3 2-.3 1.4 0 2.7.4 4 1.1 1.3.8 2.3 1.8 3.2 3 .8 1.3 1.4 2.6 1.8 4.1.3 1.5.5 2.8.5 4.1 0 1.3-.2 2.7-.7 4.1-.5 1.7-1.4 3.1-2.5 4.3-1.1 1.2-2.3 1.9-3.5 2.2-1.2.3-2.3.4-3.1.4-1.6 0-2.7-.3-3.3-.8l-1-.7v10.9zm0-18.1v1.7c.2.5.5 1 .9 1.3.3.4 1.1.6 2.1.6 1.1 0 1.9-.3 2.5-.9.5-.5.8-1.3 1-2.3.2-1.1.3-2.2.3-3.5 0-1.3-.1-2.4-.4-3.3-.3-.8-.7-1.5-1.2-2.1-.6-.6-1.3-.9-2.1-.8-.5 0-1.1.2-1.7.6-.6.4-1 .9-1.2 1.6l-.2.6v6.5zM103.3 224.3v.6c0 .2.1.7.1 1.4.1.7.3 1.5.7 2.3.4.8.8 1.3 1.2 1.6.5.3.9.3 1.5.3.4-.1.9-.2 1.3-.5s.7-.7.9-1.1c.2-.4.4-.8.5-1.2l.2-1h7.4c-.1.5-.2 1.1-.3 1.7-.1.7-.5 1.4-1 2.3-.5.8-1.1 1.6-1.9 2.2-.7.6-1.7 1.1-3 1.5-1.3.4-2.7.6-4.3.5-1.6-.1-3.2-.4-4.6-.9-1.5-.6-2.6-1.3-3.5-2.3-.9-1-1.5-2.2-1.9-3.5-.4-1.3-.6-2.9-.6-4.6 0-1 .1-1.9.3-2.9.2-1 .5-2 .9-2.9.4-.9 1-1.9 1.7-2.8.7-.9 1.9-1.8 3.4-2.6s3.2-1.2 4.9-1.1c.7 0 1.7.2 2.8.5 1.2.3 2.3 1 3.5 2 1.2 1 2.1 2.3 2.6 3.8.6 1.5.9 2.8.9 4l.1 3h-13.8zm6.7-4.1c0-.6-.1-1.1-.2-1.6s-.2-1-.5-1.6-.6-.9-.9-1.2c-.3-.2-.8-.4-1.3-.4-.6 0-1.1.1-1.6.4-.5.3-.9.8-1.3 1.6-.4.7-.6 1.3-.6 1.8l-.1.9h6.5zM142.4 234.4h-7.2v-13.1c0-1-.1-1.8-.2-2.4-.1-.6-.4-1.1-.9-1.6-.5-.4-1.2-.6-2.1-.6-.6.1-1.1.3-1.6.6s-.8.8-1 1.3c-.2.5-.3 1.3-.3 2.3v13.3h-7.2v-23.3h7.2v1.3c.3-.1.6-.3 1.1-.5.4-.2 1-.4 1.6-.6.6-.2 1.5-.2 2.5-.2 1 .1 1.9.2 2.7.5.8.3 1.5.7 2.3 1.3.7.6 1.4 1.3 1.8 2.1.5.8.8 1.7 1 2.5.2.8.3 1.9.3 3.1v14zM163.5 221.2l-3.7 13.3h-5.6l-6.7-23.3h7.1l2.5 11.1 3.4-11.1h6.1l3.2 11 2.3-11h7.1l-6.3 23.3h-5.6l-3.8-13.3zM184.4 211.1h6.7v4.3c.3-.5.8-1 1.2-1.5.5-.5 1.3-1.1 2.4-1.7 1.2-.6 2.1-.9 2.9-.9l3.8-.3v6.2c-.7-.1-1.4-.1-2-.2-.6 0-1.5 0-2.5.1-1.1.1-2.1.5-3.1 1s-1.6 1-1.9 1.6l-.8 1.3v13.4h-6.7v-23.3zM218.3 211.1h5.2v4.6h-5.2v10.9c0 .8.1 1.4.3 1.8.2.4.5.6.8.8.4.1 1 .2 1.9.2h2.3l-.1 5h-5.1c-.7 0-1.4 0-2.1-.1-.7-.1-1.4-.3-2.1-.7-.7-.4-1.3-.9-1.8-1.4-.5-.6-.8-1.2-1-2-.2-.7-.3-1.7-.3-2.8v-11.6h-4.8v-4.6h4.8v-7.6h7.2v7.5z" class="st2"/></g></svg>