<svg xmlns="http://www.w3.org/2000/svg" width="200" height="200" class="icon" viewBox="0 0 1024 1024"><defs><style/></defs><path fill="#fff" d="M484.43 51.2L236.309 354.462H118.154c-43.323 0-78.77 35.446-78.77 78.769v157.538c0 43.323 35.447 78.77 78.77 78.77h118.154L484.43 972.8c25.6 25.6 66.954 7.877 66.954-27.57V78.77c0-35.447-43.323-53.17-66.954-27.57zM882.216 512l96.493-96.492c7.877-7.877 7.877-19.693 0-27.57l-27.57-27.569c-7.876-7.877-19.692-7.877-27.569 0l-96.492 96.493-96.492-96.493c-7.877-7.877-19.693-7.877-27.57 0l-27.569 27.57c-7.877 7.876-7.877 19.692 0 27.569L771.938 512l-96.492 96.492c-7.877 7.877-7.877 19.693 0 27.57l27.57 27.569c7.876 7.877 19.692 7.877 27.569 0l96.492-96.493 96.492 96.493c7.877 7.877 19.693 7.877 27.57 0l27.569-27.57c7.877-7.876 7.877-19.692 0-27.569L882.215 512z"/></svg>