<svg xmlns="http://www.w3.org/2000/svg" width="200" height="200" class="icon" viewBox="0 0 1024 1024"><defs><style/></defs><path fill="#fff" d="M484.43 51.2L236.309 354.462H118.154c-43.323 0-78.77 35.446-78.77 78.769v157.538c0 43.323 35.447 78.77 78.77 78.77h118.154L484.43 972.8c25.6 25.6 66.954 7.877 66.954-27.57V78.77c0-35.447-43.323-53.17-66.954-27.57zm354.462 120.123c-7.877-7.877-19.692-7.877-27.569 0l-27.57 27.57c-7.876 7.876-7.876 21.66 0 27.569C858.586 299.323 905.847 399.754 905.847 512c0 112.246-47.261 212.677-122.092 285.538-7.877 7.877-7.877 19.693 0 27.57l27.57 27.569c7.876 7.877 19.691 7.877 27.568 0C927.508 768 984.615 645.907 984.615 512c0-133.908-55.138-256-145.723-340.677zm-124.061 126.03c-7.877-7.876-19.693-7.876-27.57 0l-27.569 27.57c-7.877 7.877-7.877 19.692 0 27.57 43.323 39.384 68.923 96.492 68.923 159.507s-27.569 120.123-70.892 159.508c-7.877 7.877-7.877 19.692 0 27.569l27.57 27.57c7.876 7.876 19.692 7.876 27.569 0 57.107-53.17 94.523-129.97 94.523-216.616 0-82.708-35.447-159.508-92.554-212.677z"/></svg>